<?xml version="1.0" encoding="UTF-8"?>
<svg id="Ebene_1" data-name="Ebene 1" xmlns="http://www.w3.org/2000/svg" viewBox="0 0 500 500">
  <polygon points="455.76 263.72 455.76 291.15 455.76 318.59 455.76 346.02 455.76 373.45 483.19 373.45 483.19 346.02 483.19 318.59 483.19 291.15 483.19 263.72 455.76 263.72"/>
  <rect x="428.32" y="373.45" width="27.43" height="27.43"/>
  <rect x="428.32" y="236.28" width="27.43" height="27.43"/>
  <polygon points="373.45 400.89 346.02 400.89 346.02 428.32 373.45 428.32 400.89 428.32 428.32 428.32 428.32 400.89 400.89 400.89 373.45 400.89"/>
  <polygon points="400.89 236.28 428.32 236.28 428.32 208.85 400.89 208.85 373.45 208.85 346.02 208.85 346.02 236.28 373.45 236.28 400.89 236.28"/>
  <rect x="318.59" y="373.45" width="27.43" height="27.43"/>
  <rect x="318.59" y="236.28" width="27.43" height="27.43"/>
  <polygon points="318.59 318.59 318.59 291.15 318.59 263.72 291.15 263.72 291.15 291.15 291.15 318.59 291.15 346.02 291.15 373.45 318.59 373.45 318.59 346.02 318.59 318.59"/>
  <polygon points="291.15 126.55 318.59 126.55 318.59 153.98 346.02 153.98 346.02 181.41 373.45 181.41 373.45 153.98 373.45 126.55 346.02 126.55 346.02 99.11 318.59 99.11 318.59 71.68 291.15 71.68 263.72 71.68 263.72 44.24 236.28 44.24 208.85 44.24 181.41 44.24 181.41 71.68 181.41 99.11 208.85 99.11 208.85 71.68 236.28 71.68 236.28 99.11 263.72 99.11 263.72 126.55 236.28 126.55 236.28 153.98 208.85 153.98 208.85 181.41 208.85 208.85 181.41 208.85 153.98 208.85 153.98 236.28 181.41 236.28 208.85 236.28 208.85 263.72 236.28 263.72 263.72 263.72 263.72 236.28 236.28 236.28 236.28 208.85 236.28 181.41 263.72 181.41 263.72 153.98 291.15 153.98 291.15 126.55"/>
  <polygon points="236.28 346.02 208.85 346.02 208.85 373.45 208.85 400.89 181.41 400.89 153.98 400.89 126.55 400.89 126.55 428.32 153.98 428.32 181.41 428.32 208.85 428.32 236.28 428.32 236.28 400.89 263.72 400.89 263.72 373.45 236.28 373.45 236.28 346.02"/>
  <rect x="181.41" y="318.59" width="27.43" height="27.43"/>
  <rect x="153.98" y="291.15" width="27.43" height="27.43"/>
  <rect x="126.55" y="263.72" width="27.43" height="27.43"/>
  <rect x="99.11" y="236.28" width="27.43" height="27.43"/>
  <polygon points="71.68 428.32 44.24 428.32 44.24 400.89 16.81 400.89 16.81 428.32 16.81 455.76 44.24 455.76 71.68 455.76 99.11 455.76 126.55 455.76 126.55 428.32 99.11 428.32 71.68 428.32"/>
  <polygon points="99.11 291.15 99.11 263.72 71.68 263.72 71.68 291.15 71.68 318.59 99.11 318.59 99.11 291.15"/>
  <polygon points="71.68 373.45 71.68 346.02 71.68 318.59 44.24 318.59 44.24 346.02 44.24 373.45 44.24 400.89 71.68 400.89 71.68 373.45"/>
</svg>