<?xml version="1.0" encoding="UTF-8"?>
<svg id="Ebene_1" data-name="Ebene 1" xmlns="http://www.w3.org/2000/svg" viewBox="0 0 500 500">
  <polygon points="66.99 184.64 93.14 184.64 119.28 184.64 145.42 184.64 171.57 184.64 197.71 184.64 223.86 184.64 250 184.64 276.14 184.64 302.29 184.64 302.29 158.5 302.29 132.35 302.29 106.21 328.43 106.21 328.43 80.07 302.29 80.07 302.29 53.92 276.14 53.92 276.14 27.78 250 27.78 223.86 27.78 223.86 53.92 223.86 80.07 223.86 106.21 197.71 106.21 171.57 106.21 145.42 106.21 119.28 106.21 93.14 106.21 66.99 106.21 40.85 106.21 40.85 132.35 14.71 132.35 14.71 158.5 14.71 184.64 40.85 184.64 66.99 184.64"/>
  <polygon points="459.15 236.93 459.15 210.78 433.01 210.78 433.01 184.64 406.86 184.64 406.86 158.5 380.72 158.5 380.72 132.35 354.58 132.35 328.43 132.35 328.43 158.5 328.43 184.64 328.43 210.78 302.29 210.78 276.14 210.78 250 210.78 223.86 210.78 197.71 210.78 171.57 210.78 145.42 210.78 119.28 210.78 93.14 210.78 93.14 236.93 66.99 236.93 66.99 263.07 93.14 263.07 93.14 289.22 119.28 289.22 145.42 289.22 171.57 289.22 197.71 289.22 223.86 289.22 250 289.22 276.14 289.22 302.29 289.22 328.43 289.22 328.43 315.36 328.43 341.5 328.43 367.65 354.58 367.65 380.72 367.65 380.72 341.5 406.86 341.5 406.86 315.36 433.01 315.36 433.01 289.22 459.15 289.22 459.15 263.07 485.29 263.07 485.29 236.93 459.15 236.93"/>
  <polygon points="302.29 367.65 302.29 341.5 302.29 315.36 276.14 315.36 250 315.36 223.86 315.36 197.71 315.36 171.57 315.36 145.42 315.36 119.28 315.36 93.14 315.36 66.99 315.36 40.85 315.36 14.71 315.36 14.71 341.5 14.71 367.65 40.85 367.65 40.85 393.79 66.99 393.79 93.14 393.79 119.28 393.79 145.42 393.79 171.57 393.79 197.71 393.79 223.86 393.79 223.86 419.93 223.86 446.08 223.86 472.22 250 472.22 276.14 472.22 276.14 446.08 302.29 446.08 302.29 419.93 328.43 419.93 328.43 393.79 302.29 393.79 302.29 367.65"/>
</svg>