<?xml version="1.0" encoding="UTF-8"?>
<svg id="Ebene_1" data-name="Ebene 1" xmlns="http://www.w3.org/2000/svg" viewBox="0 0 500 500">
  <g>
    <rect x="261.76" y="155.3" width="23.53" height="23.53"/>
    <rect x="214.71" y="155.3" width="23.53" height="23.53"/>
    <polygon points="379.41 178.83 379.41 155.3 355.88 155.3 355.88 131.78 332.35 131.78 308.82 131.78 285.29 131.78 285.29 155.3 308.82 155.3 332.35 155.3 332.35 178.83 355.88 178.83 355.88 202.36 379.41 202.36 379.41 225.89 355.88 225.89 355.88 249.42 332.35 249.42 332.35 272.94 308.82 272.94 308.82 296.47 285.29 296.47 285.29 320 261.76 320 261.76 343.53 238.24 343.53 238.24 320 214.71 320 214.71 296.47 191.18 296.47 191.18 272.94 167.65 272.94 167.65 249.42 144.12 249.42 144.12 225.89 120.6 225.89 120.6 202.36 144.12 202.36 144.12 178.83 167.65 178.83 167.65 155.3 191.18 155.3 214.71 155.3 214.71 131.78 191.18 131.78 167.65 131.78 144.12 131.78 144.12 155.3 120.6 155.3 120.6 178.83 97.07 178.83 97.07 202.36 97.07 225.89 97.07 249.42 120.6 249.42 120.6 272.94 144.12 272.94 144.12 296.47 167.65 296.47 167.65 320 191.18 320 191.18 343.53 214.71 343.53 214.71 367.06 238.24 367.06 238.24 390.58 261.76 390.58 261.76 367.06 285.29 367.06 285.29 343.53 308.82 343.53 308.82 320 332.35 320 332.35 296.47 355.88 296.47 355.88 272.94 379.41 272.94 379.41 249.42 402.93 249.42 402.93 225.89 402.93 202.36 402.93 178.83 379.41 178.83"/>
    <rect x="238.24" y="178.83" width="23.53" height="23.53"/>
  </g>
  <g>
    <polygon points="461.26 108.83 437.73 108.83 437.73 132.36 437.73 155.89 461.26 155.89 461.26 132.36 461.26 108.83"/>
    <rect x="414.2" y="85.3" width="23.53" height="23.53"/>
    <rect x="390.68" y="61.78" width="23.53" height="23.53"/>
    <polygon points="367.15 38.25 343.62 38.25 343.62 61.78 367.15 61.78 390.68 61.78 390.68 38.25 367.15 38.25"/>
    <polygon points="320.09 14.72 296.56 14.72 273.04 14.72 250.49 14.72 249.51 14.72 226.96 14.72 203.44 14.72 179.91 14.72 156.38 14.72 156.38 38.25 179.91 38.25 203.44 38.25 226.96 38.25 250.49 38.25 250.49 38.25 273.04 38.25 296.56 38.25 320.09 38.25 343.62 38.25 343.62 14.72 320.09 14.72"/>
    <polygon points="296.56 461.75 273.04 461.75 250.49 461.75 249.51 461.75 226.96 461.75 203.44 461.75 179.91 461.75 156.38 461.75 156.38 485.28 179.91 485.28 203.44 485.28 226.96 485.28 250.49 485.28 250.49 485.28 273.04 485.28 296.56 485.28 320.09 485.28 343.62 485.28 343.62 461.75 320.09 461.75 296.56 461.75"/>
    <polygon points="343.62 438.22 343.62 461.75 367.15 461.75 390.68 461.75 390.68 438.22 367.15 438.22 343.62 438.22"/>
    <rect x="390.68" y="414.7" width="23.53" height="23.53"/>
    <rect x="414.2" y="391.17" width="23.53" height="23.53"/>
    <polygon points="437.73 367.64 437.73 391.17 461.26 391.17 461.26 367.64 461.26 344.11 437.73 344.11 437.73 367.64"/>
    <polygon points="484.79 250 484.79 226.47 484.79 202.94 484.79 179.42 484.79 155.89 461.26 155.89 461.26 179.42 461.26 202.94 461.26 226.47 461.26 250 461.26 250 461.26 273.53 461.26 297.06 461.26 320.58 461.26 344.11 484.79 344.11 484.79 320.58 484.79 297.06 484.79 273.53 484.79 250 484.79 250"/>
    <polygon points="38.74 297.06 38.74 273.53 38.74 250 15.21 250 15.21 273.53 15.21 297.06 15.21 320.58 15.21 344.11 38.74 344.11 38.74 320.58 38.74 297.06"/>
    <polygon points="62.27 344.11 38.74 344.11 38.74 367.64 38.74 391.17 62.27 391.17 62.27 367.64 62.27 344.11"/>
    <rect x="62.27" y="391.17" width="23.53" height="23.53"/>
    <rect x="85.8" y="414.7" width="23.53" height="23.53"/>
    <polygon points="132.85 438.22 109.32 438.22 109.32 461.75 132.85 461.75 156.38 461.75 156.38 438.22 132.85 438.22"/>
    <polygon points="109.32 38.25 109.32 61.78 132.85 61.78 156.38 61.78 156.38 38.25 132.85 38.25 109.32 38.25"/>
    <rect x="85.8" y="61.78" width="23.53" height="23.53"/>
    <rect x="62.27" y="85.3" width="23.53" height="23.53"/>
    <polygon points="38.74 132.36 38.74 155.89 62.27 155.89 62.27 132.36 62.27 108.83 38.74 108.83 38.74 132.36"/>
    <polygon points="15.21 179.42 15.21 202.94 15.21 226.47 15.21 250 38.74 250 38.74 226.47 38.74 202.94 38.74 179.42 38.74 155.89 15.21 155.89 15.21 179.42"/>
  </g>
</svg>